HIERARCHY
ROOT Hips
{
	OFFSET 0.000000 89.005402 0.000000
	CHANNELS 6 Xposition Yposition Zposition Xrotation Yrotation Zrotation
	JOINT Spine
	{
		OFFSET 0.116900 10.681000 0.373400
		CHANNELS 3 Xrotation Yrotation Zrotation
		JOINT Spine1
		{
			OFFSET 0.000000 13.840401 0.053500
			CHANNELS 3 Xrotation Yrotation Zrotation
			JOINT Spine2
			{
				OFFSET 0.000000 14.712700 -0.366200
				CHANNELS 3 Xrotation Yrotation Zrotation
				JOINT Neck
				{
					OFFSET 0.000000 35.415497 -3.314200
					CHANNELS 3 Xrotation Yrotation Zrotation
					JOINT Head
					{
						OFFSET 0.000000 16.899200 1.218300
						CHANNELS 3 Xrotation Yrotation Zrotation
						JOINT HeadTop_End
						{
							OFFSET 0.000000 22.206207 2.192500
							CHANNELS 3 Xrotation Yrotation Zrotation
							End Site
							{
								OFFSET 0.000000 22.314178 0.000000
							}
						}
					}
				}
				JOINT LeftShoulder
				{
					OFFSET 12.896400 26.716293 -4.548400
					CHANNELS 3 Xrotation Yrotation Zrotation
					JOINT LeftArm
					{
						OFFSET 19.027000 -4.857010 -1.718400
						CHANNELS 3 Xrotation Yrotation Zrotation
						JOINT LeftForeArm
						{
							OFFSET 24.179897 0.000000 0.000000
							CHANNELS 3 Xrotation Yrotation Zrotation
							JOINT LeftHand
							{
								OFFSET 27.156403 0.000000 0.000000
								CHANNELS 3 Xrotation Yrotation Zrotation
								JOINT LeftHandIndex1
								{
									OFFSET 16.441200 0.000000 0.000000
									CHANNELS 3 Xrotation Yrotation Zrotation
									JOINT LeftHandIndex2
									{
										OFFSET 4.821899 0.000000 0.000000
										CHANNELS 3 Xrotation Yrotation Zrotation
										JOINT LeftHandIndex3
										{
											OFFSET 6.386497 0.000000 0.000000
											CHANNELS 3 Xrotation Yrotation Zrotation
											JOINT LeftHandIndex4
											{
												OFFSET 5.188988 0.000000 0.000000
												CHANNELS 3 Xrotation Yrotation Zrotation
												End Site
												{
													OFFSET -0.178703 5.185913 0.000177
												}
											}
										}
									}
								}
								JOINT LeftHandThumb1
								{
									OFFSET 6.534897 -5.032593 5.900300
									CHANNELS 3 Xrotation Yrotation Zrotation
									JOINT LeftHandThumb2
									{
										OFFSET 3.818176 -2.204422 2.204423
										CHANNELS 3 Xrotation Yrotation Zrotation
										JOINT LeftHandThumb3
										{
											OFFSET 3.252098 -1.877594 1.877601
											CHANNELS 3 Xrotation Yrotation Zrotation
											JOINT LeftHandThumb4
											{
												OFFSET 5.251778 -3.032120 3.032117
												CHANNELS 3 Xrotation Yrotation Zrotation
												End Site
												{
													OFFSET 0.000023 6.780014 0.000000
												}
											}
										}
									}
								}
							}
						}
					}
				}
				JOINT RightShoulder
				{
					OFFSET -12.896300 26.716293 -4.548400
					CHANNELS 3 Xrotation Yrotation Zrotation
					JOINT RightArm
					{
						OFFSET -19.027000 -4.857010 -1.718400
						CHANNELS 3 Xrotation Yrotation Zrotation
						JOINT RightForeArm
						{
							OFFSET -24.179897 0.000000 0.000000
							CHANNELS 3 Xrotation Yrotation Zrotation
							JOINT RightHand
							{
								OFFSET -27.156403 0.000000 0.000000
								CHANNELS 3 Xrotation Yrotation Zrotation
								JOINT RightHandThumb1
								{
									OFFSET -6.591202 -4.852203 5.988100
									CHANNELS 3 Xrotation Yrotation Zrotation
									JOINT RightHandThumb2
									{
										OFFSET -3.818176 -2.204422 2.204423
										CHANNELS 3 Xrotation Yrotation Zrotation
										JOINT RightHandThumb3
										{
											OFFSET -3.252098 -1.877594 1.877601
											CHANNELS 3 Xrotation Yrotation Zrotation
											JOINT RightHandThumb4
											{
												OFFSET -5.251778 -3.032120 3.032117
												CHANNELS 3 Xrotation Yrotation Zrotation
												End Site
												{
													OFFSET -0.000023 6.780014 0.000000
												}
											}
										}
									}
								}
								JOINT RightHandIndex1
								{
									OFFSET -16.029404 0.000000 0.000000
									CHANNELS 3 Xrotation Yrotation Zrotation
									JOINT RightHandIndex2
									{
										OFFSET -5.213303 0.000000 0.000000
										CHANNELS 3 Xrotation Yrotation Zrotation
										JOINT RightHandIndex3
										{
											OFFSET -6.386528 0.000000 0.000000
											CHANNELS 3 Xrotation Yrotation Zrotation
											JOINT RightHandIndex4
											{
												OFFSET -5.189026 0.000000 0.000000
												CHANNELS 3 Xrotation Yrotation Zrotation
												End Site
												{
													OFFSET 0.236702 5.183624 0.001972
												}
											}
										}
									}
								}
							}
						}
					}
				}
			}
		}
	}
	JOINT LeftUpLeg
	{
		OFFSET 14.073000 -7.904099 -1.463000
		CHANNELS 3 Xrotation Yrotation Zrotation
		JOINT LeftLeg
		{
			OFFSET -0.109806 -34.073280 4.093200
			CHANNELS 3 Xrotation Yrotation Zrotation
			JOINT LeftFoot
			{
				OFFSET 0.109806 -29.899420 -6.319000
				CHANNELS 3 Xrotation Yrotation Zrotation
				JOINT LeftToeBase
				{
					OFFSET 1.551100 -14.988700 20.535801
					CHANNELS 3 Xrotation Yrotation Zrotation
					JOINT LeftToe_End
					{
						OFFSET 0.221200 0.570800 13.248301
						CHANNELS 3 Xrotation Yrotation Zrotation
						End Site
						{
							OFFSET 0.000000 13.262435 0.000000
						}
					}
				}
			}
		}
	}
	JOINT RightUpLeg
	{
		OFFSET -13.839300 -7.904099 -1.463000
		CHANNELS 3 Xrotation Yrotation Zrotation
		JOINT RightLeg
		{
			OFFSET 0.109694 -34.073219 4.093300
			CHANNELS 3 Xrotation Yrotation Zrotation
			JOINT RightFoot
			{
				OFFSET -0.109694 -29.899384 -6.319200
				CHANNELS 3 Xrotation Yrotation Zrotation
				JOINT RightToeBase
				{
					OFFSET -1.551100 -14.988700 20.535801
					CHANNELS 3 Xrotation Yrotation Zrotation
					JOINT RightToe_End
					{
						OFFSET -0.221200 0.570900 13.248299
						CHANNELS 3 Xrotation Yrotation Zrotation
						End Site
						{
							OFFSET 0.000000 13.262440 0.000000
						}
					}
				}
			}
		}
	}
}
MOTION
Frames: 8
Frame Time: 0.033333
-0.119077 86.583572 1.568557 3.816362 -3.707620 -0.280618 0.169155 0.326226 0.110942 0.511369 0.555630 -0.149995 0.508118 0.557001 -0.156049 -12.568404 -1.447527 2.637434 10.197544 3.163033 -2.584843 -0.000000 -0.000000 0.000000 1.604993 -11.385831 -9.553344 4.693908 -15.510854 -64.447814 -0.000002 -13.259567 0.000004 1.710953 -1.931702 -8.334567 0.460236 4.491398 -23.662342 0.883073 3.094858 -31.844186 0.339542 1.967251 -19.583703 0.000001 -0.000002 -0.000001 0.699763 -6.020113 19.223936 19.074645 26.512428 -1.026324 3.271081 -0.981139 3.963660 0.000001 -0.000004 -0.000000 2.087500 14.855924 10.815235 -4.081718 3.217631 66.340118 0.000000 8.035633 0.000023 10.830506 0.014452 8.013317 -13.495574 -11.552040 -5.371128 13.666555 -20.582688 -6.820360 3.162471 -4.141727 -22.215042 -0.000001 0.000000 -0.000001 0.246055 -3.262779 18.902299 0.589430 -2.269655 29.112657 0.172153 -1.255822 15.610683 0.000002 -0.000003 -0.000002 -8.858038 12.255127 11.950534 11.284155 4.302889 2.076043 -5.301741 1.431784 -12.399689 0.000523 0.000006 -0.000660 0.000000 -0.000001 -0.000000 -10.543566 -8.287478 -9.933149 8.973484 1.832719 -3.106178 -2.246350 -1.006841 12.448455 -0.000067 0.000004 -0.000005 -0.000000 -0.000001 -0.000000 
-0.121021 86.351578 1.496586 4.370908 -3.595398 -0.295715 0.213473 0.334894 0.093679 0.598880 0.567205 -0.133209 0.595552 0.569272 -0.139311 -12.463759 -1.513661 2.669979 10.461764 2.932632 -2.617165 0.000000 0.000000 -0.000000 1.605394 -11.437319 -9.539357 4.991417 -15.626025 -64.101517 -0.000008 -14.472068 -0.000019 1.656620 -1.398934 -8.102531 0.438693 4.432767 -23.076002 0.854238 3.048001 -31.305878 0.329583 1.939026 -19.291323 -0.000002 0.000004 -0.000000 0.757476 -6.200952 19.259491 18.971253 26.659721 -0.863898 3.105128 -1.242694 4.614009 -0.000001 0.000003 0.000003 2.105592 14.887483 10.578990 -3.316754 3.346759 66.476653 -0.000001 10.050047 -0.000002 10.453208 -0.406706 7.123178 -13.356279 -11.298564 -5.756417 13.620340 -20.217963 -6.724032 3.082234 -4.195784 -22.181265 -0.000003 0.000001 -0.000001 0.219992 -3.218215 18.354790 0.570439 -2.235256 28.629626 0.167520 -1.239135 15.398089 -0.000000 0.000002 0.000001 -10.271554 11.884569 12.158962 12.813214 4.323838 2.093830 -5.955195 1.509834 -12.471827 -0.027643 0.000002 0.000003 0.000000 0.000002 0.000000 -11.830320 -8.024392 -9.993510 10.417844 1.675339 -3.139220 -2.909074 -1.091149 12.481259 -0.006930 0.000001 -0.000001 -0.000000 -0.000001 0.000000 
-0.145005 85.881699 1.342079 5.008886 -3.493023 -0.293687 0.277108 0.343673 0.067912 0.724460 0.580781 -0.110807 0.721041 0.583824 -0.116940 -12.301748 -1.598614 2.686229 10.884323 2.580062 -2.685770 -0.000000 0.000000 -0.000000 1.608989 -11.511254 -9.526109 5.766257 -15.380676 -63.501990 -0.000005 -17.031688 -0.000000 1.700140 -0.261648 -7.936080 0.417767 4.373904 -22.489451 0.825823 3.000855 -30.767612 0.319769 1.910778 -18.998946 0.000001 -0.000001 -0.000002 0.815003 -6.382128 19.295091 18.869084 26.804456 -0.700475 2.945930 -1.506260 5.265631 0.000001 -0.000001 -0.000001 2.144348 14.910083 10.163081 -1.636646 3.528697 66.669019 0.000000 14.097956 0.000005 10.417048 -1.360099 6.008061 -13.218027 -11.047314 -6.144358 13.576642 -19.850406 -6.628810 3.005448 -4.249953 -22.147857 0.000001 -0.000001 -0.000001 0.194799 -3.173078 17.807136 0.551748 -2.200690 28.146663 0.162962 -1.222440 15.185498 0.000000 0.000001 0.000001 -12.455772 11.349888 12.537313 15.672735 4.305199 2.073220 -7.229091 1.666000 -12.599029 -0.077798 0.000000 -0.000000 -0.000000 -0.000001 -0.000000 -13.988140 -7.595930 -10.211999 13.377638 1.544666 -3.067921 -4.292279 -1.242524 12.437376 -0.015412 -0.000000 0.000002 -0.000000 0.000000 -0.000000 
-0.174872 85.317368 1.125097 5.747608 -3.408425 -0.304468 0.365710 0.354389 0.058154 0.893418 0.597378 -0.080729 0.889877 0.601744 -0.086895 -12.077058 -1.693942 2.664892 11.706952 2.089066 -2.760031 0.000000 -0.000000 0.000000 1.616436 -11.617791 -9.495632 6.678769 -14.944116 -62.783946 0.000007 -20.204463 0.000003 1.671399 0.965906 -7.617449 0.397444 4.314792 -21.902779 0.797886 2.953463 -30.229417 0.310084 1.882422 -18.706602 -0.000002 -0.000001 0.000003 0.872340 -6.563683 19.330678 18.768436 26.946350 -0.536088 2.794594 -1.771724 5.918894 0.000003 -0.000001 -0.000000 2.199673 14.942562 9.569609 0.260690 4.073777 66.914783 -0.000007 18.570598 -0.000011 10.442228 -2.120895 4.393161 -13.081259 -10.798242 -6.535208 13.535883 -19.479577 -6.534803 2.932632 -4.304168 -22.114863 -0.000000 -0.000000 0.000000 0.170590 -3.127317 17.259342 0.533352 -2.165974 27.663673 0.158453 -1.205729 14.972895 -0.000000 -0.000002 -0.000005 -14.942256 10.742720 12.977546 18.845344 4.298133 2.023029 -8.600561 1.833544 -12.730069 -0.154691 0.000011 -0.000000 0.000000 0.000000 0.000000 -16.447312 -7.154484 -10.481778 16.607132 1.468530 -2.863438 -5.747911 -1.383989 12.311846 -0.038725 -0.000003 0.000003 0.000000 -0.000000 -0.000000 
-0.207114 84.707275 0.844718 6.634991 -3.377192 -0.302813 0.486377 0.363975 0.063429 1.108264 0.613157 -0.037077 1.104607 0.619295 -0.043321 -11.776762 -1.782600 2.608285 13.060014 1.535394 -2.824011 0.000000 0.000000 0.000000 1.628079 -11.769698 -9.421715 7.569865 -14.466120 -62.052883 -0.000002 -23.605747 0.000018 1.399149 2.125346 -7.074225 0.377732 4.255439 -21.315991 0.770382 2.905807 -29.691276 0.300547 1.854057 -18.414243 -0.000000 0.000003 -0.000001 0.929457 -6.745635 19.366219 18.669391 27.085366 -0.370734 2.651391 -2.038975 6.573910 -0.000001 -0.000002 -0.000000 2.257971 15.030424 8.857810 2.196069 4.957901 67.081801 0.000003 23.144721 0.000001 10.157545 -2.747679 2.533530 -12.946061 -10.551330 -6.928948 13.498100 -19.105463 -6.442193 2.863930 -4.358347 -22.082273 0.000001 0.000000 -0.000000 0.147518 -3.080945 16.711455 0.515248 -2.131101 27.180728 0.154009 -1.188991 14.760322 0.000000 -0.000001 -0.000000 -17.598256 10.070871 13.396738 21.980008 4.380196 1.969202 -9.881829 1.999111 -12.876803 -0.262834 0.000007 0.000004 -0.000000 -0.000001 -0.000000 -19.131234 -6.737201 -10.757297 19.778216 1.498102 -2.613250 -7.083148 -1.509047 12.138002 -0.078978 0.000001 0.000001 0.000000 0.000000 -0.000000 
-0.232322 84.083511 0.500150 7.722553 -3.363125 -0.308888 0.645864 0.369209 0.084867 1.370798 0.623980 0.022979 1.367059 0.632345 0.016584 -11.372671 -1.845404 2.544943 14.817990 1.064303 -2.896543 -0.000000 0.000000 0.000000 1.642614 -11.975576 -9.307726 8.407073 -14.002474 -61.325256 -0.000004 -27.150844 -0.000009 0.950061 2.982197 -6.206811 0.358637 4.195855 -20.729127 0.743323 2.857897 -29.153139 0.291167 1.825650 -18.121895 -0.000001 -0.000001 -0.000000 0.986360 -6.927992 19.401711 18.571950 27.221605 -0.204554 2.515980 -2.308022 7.230468 -0.000002 0.000001 0.000000 2.304224 15.204479 8.142460 4.023698 6.076221 67.028581 -0.000007 27.541124 0.000015 9.635353 -3.151338 0.675693 -12.812271 -10.306601 -7.325453 13.463223 -18.728205 -6.350865 2.799096 -4.412391 -22.050122 0.000001 -0.000002 0.000000 0.125562 -3.033977 16.163445 0.497445 -2.096073 26.697796 0.149627 -1.172239 14.547739 -0.000002 -0.000001 0.000001 -20.440179 9.324214 13.785037 24.947771 4.527680 1.916889 -10.987064 2.163490 -13.024534 -0.405989 -0.000014 0.000001 -0.000000 0.000000 -0.000000 -21.987146 -6.292630 -10.968589 22.711199 1.505476 -2.379133 -8.200150 -1.613839 11.950041 -0.117879 -0.000001 0.000000 0.000000 -0.000001 -0.000000 
-0.259682 83.465843 0.092493 9.072173 -3.407127 -0.317004 0.846674 0.373234 0.117941 1.681973 0.632911 0.088914 1.678183 0.643703 0.082330 -10.835069 -1.866933 2.495100 16.698055 0.788050 -3.013928 0.000000 0.000000 0.000000 1.657500 -12.219676 -9.210799 9.187334 -13.526712 -60.551908 -0.000002 -30.758599 -0.000012 0.164804 3.153351 -4.515222 0.340156 4.136058 -20.142100 0.716716 2.809724 -28.615066 0.281932 1.797187 -17.829558 0.000000 0.000001 -0.000002 1.043093 -7.110740 19.437159 18.476080 27.355164 -0.037480 2.388246 -2.578760 7.888468 0.000003 0.000002 0.000001 2.329174 15.453206 7.545932 5.556135 7.284614 66.652319 0.000000 31.572761 -0.000012 9.066447 -3.267517 -1.232076 -12.679858 -10.064123 -7.724649 13.431199 -18.347903 -6.260916 2.738096 -4.466193 -22.018307 -0.000002 -0.000000 0.000000 0.104433 -2.986531 15.615279 0.479920 -2.060911 26.214898 0.145310 -1.155478 14.335129 0.000002 -0.000000 -0.000001 -23.486743 8.518344 14.158963 27.667008 4.765934 1.839692 -11.869472 2.322098 -13.173967 -0.582005 0.000007 0.000003 0.000000 -0.000001 -0.000000 -25.022376 -5.696617 -11.000856 25.301205 1.347298 -2.304408 -9.025273 -1.704066 11.875544 -0.151005 0.000004 0.000002 0.000000 0.000001 0.000000 
-0.309618 82.859276 -0.383844 10.763524 -3.630863 -0.279517 1.080480 0.376969 0.154770 2.032613 0.640507 0.147152 2.028812 0.653594 0.140372 -10.150961 -1.839575 2.447129 18.383273 0.723097 -3.204493 0.000001 -0.000000 -0.000000 1.669753 -12.470816 -9.204239 9.947940 -13.012533 -59.665295 0.000007 -34.379914 -0.000009 -1.372210 2.780242 -1.545465 0.322273 4.076042 -19.554835 0.690569 2.761326 -28.077033 0.272838 1.768672 -17.537228 -0.000001 -0.000001 0.000001 1.099632 -7.293857 19.472635 18.381922 27.485984 0.130331 2.268334 -2.851124 8.547936 -0.000000 0.000002 0.000003 2.323942 15.774515 7.150057 6.517382 8.374613 65.929965 -0.000011 35.067929 0.000041 8.511804 -3.309203 -3.305292 -12.548856 -9.823849 -8.126605 13.402086 -17.964583 -6.172408 2.680994 -4.519683 -21.986814 -0.000002 0.000001 0.000001 0.083779 -2.938771 15.066887 0.462707 -2.025587 25.732026 0.141055 -1.138683 14.122567 0.000003 0.000001 0.000001 -26.751080 7.644384 14.523936 30.092301 5.265613 1.727643 -12.507045 2.444301 -13.395722 -0.776395 -0.000009 0.000000 0.000000 -0.000001 0.000000 -28.370079 -4.863124 -10.775771 27.554195 0.994516 -2.475326 -9.517432 -1.756630 11.956273 -0.202266 0.000002 0.000007 -0.000000 -0.000000 -0.000000 
